<?xml version="1.0" encoding="utf-8"?>
<!-- Generator: Adobe Illustrator 18.1.1, SVG Export Plug-In . SVG Version: 6.00 Build 0)  -->
<svg version="1.1" id="Calque_1" xmlns="http://www.w3.org/2000/svg" xmlns:xlink="http://www.w3.org/1999/xlink" x="0px" y="0px"
	 viewBox="0 0 1280 371.1265869" enable-background="new 0 0 1280 371.1265869" xml:space="preserve">
<path fill="#FFFFFF" d="M170,0.0000013c7.6666718,0.0000002,15.3333282,0.0000002,23,0.0000013
	c1.1204681,0.2765048,2.2273407,0.7054628,3.3634338,0.8066169c16.754303,1.4917685,32.9003906,5.6318645,47.9382935,12.999979
	c11.765686,5.7648182,22.842041,12.9327488,34.2640686,19.4077721c1.3616028,0.7718887,2.9711609,1.1064453,4.4657898,1.6437073
	c0.484375-1.4913597,1.3155823-2.9664021,1.3866882-4.4772034c0.1955872-4.1574669,0.034668-8.3303795,0.0844421-12.4963474
	c0.08078-6.7590857,1.8663025-8.5743341,8.6787109-8.5875587c19.6659241-0.0381794,39.3320923-0.0393763,58.9980164-0.0003643
	c6.9012451,0.013689,8.7365723,1.9608173,8.7435913,9.0566902c0.0169678,17.1660957,0.0002441,34.3322258,0.0159607,51.4983292
	c0.0013733,1.5144272,0.1410217,3.0287247,0.2164612,4.5430832c7.2235718-23.4580956,21.5953064-40.8433456,42.5063782-52.9930725
	c15.5986023-9.0630665,32.5603027-14.3455601,50.2353821-17.3088989C464.2038269,2.3647666,474.628479,1.340746,485,0.0000013
	c10.6666565,0.0000002,21.3333435,0.0000002,32,0.0000007c1.6240234,0.2999866,3.2449951,0.6182998,4.8726196,0.8970296
	c12.1148682,2.0745921,24.4957886,3.1705523,36.2984619,6.3882632
	c39.1010132,10.6599312,68.0267334,33.4007683,82.1832275,72.5119629
	c2.3954468,6.6181412,4.0566406,13.5020599,6.1983643,20.7405472c0.9030762-1.5028458,1.5893555-2.6078033,2.2401733-3.733284
	c26.6687622-46.121357,65.2142944-77.1144409,116.8861694-90.9728699C776.2160645,3.0056181,787.2143555,1.8991536,798,0
	c8.333313,0.0000015,16.666687,0.0000015,25,0.0000045c2.7651978,0.3957798,5.5269165,0.8171583,8.2960205,1.1835738
	c64.6032104,8.548542,112.380249,41.7787971,144.274292,98.3243179c0.579895,1.0280228,1.2974854,1.978363,2.4783325,3.7615204
	c0.1893311-2.716362,0.3197021-4.3627853,0.416626-6.0111923c1.9966431-33.9639511,17.0498657-59.9399452,47.0252075-76.7450104
	c15.2617188-8.5562038,31.7497559-13.6325321,48.9147949-16.4452877C1084.8778076,2.351831,1095.4645996,1.3323597,1106,0.0000014
	c10.666626,0.0000001,21.333374,0.0000001,32,0.0000029c1.4438477,0.3024974,2.878418,0.6634265,4.3331299,0.8981609
	c10.6691895,1.7214866,21.5367432,2.6407843,31.9814453,5.2537236c50.4639893,12.6246347,82.3538818,43.524868,92.3371582,95.462326
	c1.5231934,7.9243698,0.1560059,9.6136932-7.8476562,9.568161c-20.8295898-0.1185074-41.6593018-0.2164993-62.4886475-0.3680878
	c-7.7851562-0.0566635-8.6219482-0.833992-10.4345703-8.3962402c-4.4155273-18.4207916-14.4698486-32.6737671-32.1610107-40.1254692
	c-20.9155273-8.8098183-42.5844727-9.3288498-63.9075928-1.6729889
	c-20.137085,7.2300148-29.3477783,25.5245323-23.7025146,45.092144
	c3.6661377,12.7072296,13.1328125,20.0586319,24.4237061,25.5255737
	c18.1672363,8.7963409,37.819458,12.6279449,57.3465576,16.7213898
	c25.3184814,5.3074341,50.286499,11.5754852,73.2541504,23.9674988
	c25.7004395,13.866272,45.420166,33.0933838,54.1862793,61.7681427C1277.3461914,240.3204956,1278.4642334,247.2240906,1280,254
	c0,6.6666565,0,13.3333435,0,20c-2.1324463,8.6928406-3.3925781,17.7186584-6.5598145,26.01651
	c-9.7969971,25.6662903-29.2401123,42.3266907-53.8261719,52.7011108
	c-50.75354,21.4160767-103.3803711,23.0944519-156.2683105,10.4620056
	c-45.6393433-10.9010925-75.5119019-39.6833191-88.2510986-85.391571c-0.2247314-0.806427-0.7602539-1.5262756-1.1832275-2.349762
	c-35.9514771,57.6828918-85.8349609,92.4130249-154.784729,94.5865173
	c-68.1853027,2.149353-121.9568481-26.033844-161.9303589-81.6343689
	c-1.4213257,4.1474609-2.5212402,7.7925415-3.9053345,11.3262634
	c-10.1760254,25.9807434-29.6917725,42.8083496-54.6495361,53.2402344
	c-50.477478,21.0986023-102.7406006,22.5891113-155.3460693,10.3308716
	c-36.7597961-8.5658264-64.7108459-29.6342468-80.9920349-64.6091614c-0.1539612-0.330658-0.6560974-0.4992676-1.375061-1.0164185
	c0,18.7478943,0.0253601,37.0588379-0.0145874,55.3696594c-0.0129395,5.9349365-1.956543,8.0280151-7.5954285,8.04245
	c-20.4951477,0.0523682-40.9906616,0.0540466-61.4858093-0.004425c-5.2362061-0.0149231-7.1533508-1.9750977-7.3035583-7.3012695
	c-0.1315308-4.6620483,0.0887146-9.3357544-0.1086121-13.9931946c-0.0708618-1.6719971-0.9072266-3.311554-1.3942261-4.9659119
	c-1.6094971,0.6785278-3.4536743,1.0512695-4.7943115,2.0801086
	c-37.3500671,28.6641235-79.2449799,38.3649292-125.6270447,31.2559509
	C82.4133911,357.3874512,19.9302158,299.0921631,4.9573431,229.4390869C2.7995942,219.4013367,1.6279738,209.1516266,0.0000002,199
	C0,190,0,181,0,172c0.9590822-6.7242737,1.8727608-13.4553833,2.8841834-20.1717834
	C14.5475674,74.3770523,82.3428497,15.8971272,145.4793091,3.9343772C153.6094971,2.3939171,161.8243561,1.3005031,170,0.0000013z
	 M914.5139771,185.9059143c-1.5166626-11.3601685-2.3166504-22.8713837-4.6735229-34.0544891
	c-10.4835205-49.7423477-47.6434937-81.1073303-96.6809692-82.1787262
	c-41.6746826-0.9105301-77.3822632,21.9716492-93.1819458,60.454071
	c-13.4702148,32.8083801-14.1763306,66.5208893-4.1925659,100.2797241
	c13.2549438,44.8200989,46.7543335,70.3818665,93.2321777,72.1272888
	c41.901123,1.5735474,78.1221313-21.7016296,94.1021118-60.4398346
	C910.529541,224.1301117,913.3872681,205.3191681,914.5139771,185.9059143z M283.3719482,185.3438263
	c-0.4733276-7.3107147-0.6852722-14.6496429-1.4711609-21.92659c-2.0047302-18.5627289-6.6368103-36.3672028-16.8188477-52.2879028
	c-15.7418365-24.6140823-39.0358276-36.5444489-67.3927307-40.5382996
	c-41.9486694-5.9081345-79.932991,12.1288071-100.8617706,48.8963547
	c-17.5566559,30.8434067-20.8496094,63.9599228-13.7492294,98.1797562
	c12.2941895,59.2510681,62.0598221,92.8348694,117.0336075,83.3250732
	c33.7474213-5.8379211,58.487854-23.6779785,72.2367859-55.5792694
	C280.6048584,226.2562103,283.0353394,206.0130463,283.3719482,185.3438263z M361.3241882,133.5364075
	c0,37.7326355,0,75.465271,0,113.4857178c2.0451355,0,3.6966553-0.0211334,5.3474731,0.0032196
	c19.4951172,0.2874908,38.9894714,0.6748352,58.4855957,0.806488c4.6573181,0.0314484,7.2200928,1.8007202,7.8944397,6.3900909
	c0.2172546,1.4785156,0.604248,2.9346313,0.9577942,4.3902588c5.7601624,23.7142029,19.8584595,39.8718872,43.2462158,47.5151672
	c17.4678345,5.7086487,35.3434143,6.3703308,53.3318176,3.4486389c11.3652344-1.8460083,21.7250366-6.2460938,30.1793213-14.4261169
	c20.6016235-19.933197,17.5292969-51.0289459-6.6854858-66.0699921c-4.4981689-2.7940063-9.2548218-5.567688-14.276062-7.0517578
	c-16.8856201-4.9906769-33.8084717-9.9977264-50.9710083-13.8743744
	c-22.7223511-5.1325073-45.7026367-9.1585999-67.4474487-17.8957672
	C394.0126953,179.2589417,371.1146851,163.4960785,361.3241882,133.5364075z M985.8421631,247.8710327
	c19.7492676,0,38.3947754-0.036499,57.0400391,0.0159302c8.873291,0.0249634,9.1816406,0.4129486,11.105957,9.1888428
	c4.5029297,20.5357666,15.1646729,36.7896118,34.7591553,45.3276978c9.3026123,4.0535278,19.5947266,6.6097717,29.6873779,7.9033508
	c16.9676514,2.1747437,33.9987793,1.473877,49.854248-6.289978c17.4072266-8.5236511,25.9614258-22.9162903,26.3591309-42.0167236
	c0.3574219-17.1687164-10.0325928-27.4513702-23.9373779-35.0983124c-2.6196289-1.4406891-5.251709-3.016861-8.0749512-3.9026947
	c-13.151123-4.126297-26.2492676-8.5117798-39.5938721-11.9113159
	c-23.677124-6.0317535-47.7005615-10.7619324-71.2321777-17.2877197
	c-17.7342529-4.9180298-34.0296021-13.4280701-47.9234619-25.9188995c-3.2893677-2.9571228-6.6338501-5.8528595-9.7828369-8.6270142
	C997.9262695,188.5042114,995.4979858,217.7710724,985.8421631,247.8710327z M627.0855713,190.0572968
	c-0.2055054-27.6744385,4.0770874-53.5289917,14.569458-78.9059296c-2.8035889,0-4.6022339,0.0092239-6.4008179-0.0014114
	c-19.9951172-0.118248-39.9904175-0.2217407-59.9853516-0.3699493c-6.7666016-0.0501633-7.9559937-1.0146484-9.512085-7.6350174
	c-5.085083-21.6338882-17.6665649-36.5785446-39.0488892-43.5217438c-13.5619507-4.4037704-27.603363-5.2224312-41.4888-2.8384171
	c-8.1987915,1.4076729-16.7084351,3.9310112-23.8386536,8.0819931
	c-20.5335693,11.9540253-23.3676453,40.4587097-5.6927185,56.3519745
	c5.9237671,5.3266373,13.2273865,10.0852509,20.7371826,12.490448c18.4884338,5.921402,37.3251038,10.9358521,56.2713928,15.2073975
	C566.425415,156.5210266,599.1206665,166.1490173,627.0855713,190.0572968z"/>
</svg>
