<?xml version="1.0" encoding="utf-8"?>
<!-- Generator: Adobe Illustrator 18.1.1, SVG Export Plug-In . SVG Version: 6.00 Build 0)  -->
<svg version="1.1" id="Calque_1" xmlns="http://www.w3.org/2000/svg" xmlns:xlink="http://www.w3.org/1999/xlink" x="0px" y="0px"
	 viewBox="0 0 47.3 47.1" enable-background="new 0 0 47.3 47.1" xml:space="preserve">
<path fill="#2D2D2D" d="M35.1,38.5C22.5,47,10,42.1,4.2,34.3c-6.5-8.7-5.4-20.7,2.5-28.4C14.3-1.6,26.7-2,35.4,5
	c6.9,5.6,11.6,17.7,3.1,29.9c2.9,3,5.8,6,8.8,9.2c-1.1,1-2.2,2-3.3,2.9C41.1,44.2,38.1,41.4,35.1,38.5z M37.5,21.5
	c0-8.8-7.3-16.1-16-16c-8.8,0.1-16.1,7.4-16,16.1c0,8.7,7.2,15.8,16,15.9C30.4,37.5,37.5,30.4,37.5,21.5z"/>
</svg>
