<?xml version="1.0" encoding="utf-8"?>
<!-- Generator: Adobe Illustrator 18.1.1, SVG Export Plug-In . SVG Version: 6.00 Build 0)  -->
<svg version="1.1" id="Calque_1" xmlns="http://www.w3.org/2000/svg" xmlns:xlink="http://www.w3.org/1999/xlink" x="0px" y="0px"
	 viewBox="55.5 157.9 595.3 600.1" enable-background="new 55.5 157.9 595.3 600.1" xml:space="preserve">
<g>
	<path fill="#FFFFFF" d="M650.8,758c-200,0-397.7,0-595.3,0c1.9-96.4,119-191.9,249.4-204.8C479.1,535.9,621.5,618.9,650.8,758z
		 M559.2,698.5c-88.3-118.5-336.7-118-413.5,0H559.2z"/>
	<path fill="#FFFFFF" d="M530.4,339.7c-0.5,99.8-79.6,177.5-179.9,177c-99.8-0.5-178-79.1-177.5-179.4
		c0-96.9,84.4-180.8,179.9-179.4C449.8,158.9,530.9,242.3,530.4,339.7z M351.9,217.9c-65.7,0-121.4,54.7-121.8,119.9
		S283.8,458.2,350,459.6c67.2,1.4,124.2-54.7,123.8-121.4C472.8,273,417.7,217.9,351.9,217.9L351.9,217.9z"/>
</g>
</svg>
